<?xml version="1.0" encoding="UTF-8" standalone="no"?>
<svg width="30px" height="30px" viewBox="0 0 30 30" version="1.1" xmlns="http://www.w3.org/2000/svg" xmlns:xlink="http://www.w3.org/1999/xlink" xmlns:sketch="http://www.bohemiancoding.com/sketch/ns">
    <!-- Generator: Sketch 3.4.4 (17249) - http://www.bohemiancoding.com/sketch -->
    <title>can</title>
    <desc>Created with Sketch.</desc>
    <defs></defs>
    <g id="Page-1" stroke="none" stroke-width="1" fill="none" fill-rule="evenodd" sketch:type="MSPage">
        <g id="can" sketch:type="MSLayerGroup">
            <g id="圖層_1" sketch:type="MSShapeGroup">
                <g id="Layer-1">
                    <circle id="svg_1" fill="#79B506" cx="15" cy="15" r="15"></circle>
                    <path d="M9.6,24 L15,24 L15,30" id="Shape" fill="#5B8805"></path>
                    <path d="M21.3,7.2 L30,15 L21,15" id="Shape" fill="#5B8805"></path>
                    <path d="M15,30 C23.3,30 30,23.3 30,15 L15,15 L15,30 L15,30 Z" id="Shape" fill="#5B8805"></path>
                    <path d="M15,15 L15,23.5 L20,23.5 L20.5,15" id="Shape" fill="#79B506"></path>
                    <path d="M9,8 L21,8" id="Shape" stroke="#FFFFFF" stroke-width="1.5"></path>
                    <path d="M13.5,6.5 L16.5,6.5 C17.1,6.5 17.5,6.8 17.5,7.3 L17.5,7.3 C17.5,7.7 17.1,8.1 16.5,8.1 L13.5,8.1 C12.9,8.1 12.5,7.8 12.5,7.3 L12.5,7.3 C12.5,6.8 12.9,6.5 13.5,6.5 L13.5,6.5 Z" id="Shape" stroke="#FFFFFF" stroke-width="0.5" fill="#000000"></path>
                    <path d="M9.4,9.9 L10,23.3" id="Shape" stroke="#FFFFFF" stroke-width="1.25"></path>
                    <path d="M20.6,9.9 L20,23.3" id="bottom" stroke="#FFFFFF" stroke-width="1.25"></path>
                    <path d="M9.4,9.9 L20.6,9.9" id="Shape" stroke="#FFFFFF" stroke-width="1.25"></path>
                    <path d="M10.1,23.5 L19.9,23.5" id="Shape" stroke="#FFFFFF" stroke-width="1.5"></path>
                    <path d="M13,9.9 L13.2,23.5" id="Shape" stroke="#FFFFFF" stroke-width="1.25"></path>
                    <path d="M17,9.9 L16.8,23.5" id="Shape" stroke="#FFFFFF" stroke-width="1.25"></path>
                </g>
            </g>
        </g>
    </g>
</svg>