<?xml version="1.0" encoding="utf-8"?>
<!-- Generator: Adobe Illustrator 19.0.0, SVG Export Plug-In . SVG Version: 6.00 Build 0)  -->
<svg version="1.1" id="Capa_1" xmlns="http://www.w3.org/2000/svg" xmlns:xlink="http://www.w3.org/1999/xlink" x="0px" y="0px"
	 viewBox="-283 84.3 40 40.4" style="enable-background:new -283 84.3 40 40.4;" xml:space="preserve">
<g>
	<g>
		<path d="M-280.9,92.9l3.8,1.7l17.4-8.2c0.1-0.1,0.2-0.2,0.2-0.3c0-0.1-0.1-0.3-0.2-0.3l-3.1-1.4c-0.1,0-0.2,0-0.3,0l-17.8,7.9
			c-0.1,0.1-0.2,0.2-0.2,0.3S-281.1,92.8-280.9,92.9z"/>
		<path d="M-264.1,102.5l-6.7-3.1v9.4c0,0.1,0,0.2-0.1,0.2c0,0-0.1,0-0.1,0c0,0-0.1,0-0.1,0l-7.1-3.4c-0.1,0-0.1-0.1-0.1-0.2V96
			l-4.1-1.9c-0.1-0.1-0.2,0-0.3,0c-0.1,0.1-0.2,0.2-0.2,0.3v21.5c0,0.1,0.1,0.3,0.2,0.3l18.4,8.4c0,0,0.1,0,0.1,0
			c0.1,0,0.1,0,0.2-0.1c0.1-0.1,0.2-0.2,0.2-0.3v-21.5C-263.9,102.7-264,102.6-264.1,102.5z"/>
		<path d="M-243.2,94.1c-0.1-0.1-0.2-0.1-0.3,0l-18.4,8.4c-0.1,0.1-0.2,0.2-0.2,0.3v21.5c0,0.1,0.1,0.2,0.2,0.3
			c0.1,0,0.1,0.1,0.2,0.1c0.1,0,0.1,0,0.1,0l18.4-8.4c0.1-0.1,0.2-0.2,0.2-0.3V94.5C-243,94.3-243.1,94.2-243.2,94.1z"/>
		<path d="M-244.8,92.6c0-0.1-0.1-0.3-0.2-0.3l-6.2-2.7c-0.1,0-0.2,0-0.3,0l-17.9,8.5l6.3,3c0,0,0.1,0,0.1,0c0.1,0,0.1,0,0.1,0
			l17.8-8.1C-244.9,92.8-244.8,92.7-244.8,92.6z"/>
	</g>
</g>
</svg>
