<?xml version="1.0" encoding="UTF-8" standalone="no"?><svg width="100" height="178" viewBox="0 0 100 178" xmlns="http://www.w3.org/2000/svg" xmlns:xlink="http://www.w3.org/1999/xlink"><view id="can" viewBox="0 0 34 34"/><svg width="34" height="34" viewBox="-2 -2 34 34" id="can-"><title>can</title><g fill="none" fill-rule="evenodd"><circle fill="#79B506" cx="15" cy="15" r="15"/><path d="M9.6 24H15v6M21.3 7.2L30 15h-9M15 30c8.3 0 15-6.7 15-15H15v15z" fill="#5B8805"/><path d="M15 15v8.5h5l.5-8.5" fill="#79B506"/><path d="M9 8h12" stroke="#FFF" stroke-width="1.5"/><path d="M13.5 6.5h3c.6 0 1 .3 1 .8 0 .4-.4.8-1 .8h-3c-.6 0-1-.3-1-.8s.4-.8 1-.8z" stroke="#FFF" stroke-width=".5" fill="#000"/><path d="M9.4 9.9l.6 13.4M20.6 9.9L20 23.3M9.4 9.9h11.2" stroke="#FFF" stroke-width="1.25"/><path d="M10.1 23.5h9.8" stroke="#FFF" stroke-width="1.5"/><path d="M13 9.9l.2 13.6M17 9.9l-.2 13.6" stroke="#FFF" stroke-width="1.25"/></g></svg><view id="package" viewBox="0 34 44 44.4"/><svg viewBox="-285 82.3 44 44.4" width="44" height="44.4" id="package-" y="34"><path d="M-280.9 92.9l3.8 1.7 17.4-8.2c.1-.1.2-.2.2-.3 0-.1-.1-.3-.2-.3l-3.1-1.4h-.3l-17.8 7.9c-.1.1-.2.2-.2.3s0 .2.2.3zM-264.1 102.5l-6.7-3.1v9.4c0 .1 0 .2-.1.2h-.1-.1l-7.1-3.4c-.1 0-.1-.1-.1-.2V96l-4.1-1.9c-.1-.1-.2 0-.3 0-.1.1-.2.2-.2.3v21.5c0 .1.1.3.2.3l18.4 8.4h.1c.1 0 .1 0 .2-.1s.2-.2.2-.3v-21.5c-.1 0-.2-.1-.3-.2zM-243.2 94.1c-.1-.1-.2-.1-.3 0l-18.4 8.4c-.1.1-.2.2-.2.3v21.5c0 .1.1.2.2.3.1 0 .1.1.2.1h.1l18.4-8.4c.1-.1.2-.2.2-.3V94.5c0-.2-.1-.3-.2-.4zM-244.8 92.6c0-.1-.1-.3-.2-.3l-6.2-2.7h-.3l-17.9 8.5 6.3 3h.2l17.8-8.1c.2-.2.3-.3.3-.4z"/></svg><view id="water" viewBox="0 79 100 99"/><svg width="100" height="99" viewBox="-2 -2 100 99" id="water-" y="79"><title>water</title><g transform="translate(-.563 -.886)" fill="#0994FF" fill-rule="evenodd"><ellipse cx="48.465" cy="48.227" rx="47.277" ry="47.277"/><g transform="translate(23.204 30.094)" stroke="#FFF" stroke-width="8.607"><path d="M.375 6.555C16.67 17.98 31.84-8.055 50.195 6.18M.375 19.104C16.67 30.53 31.84 4.494 50.195 18.73M.375 31.653c16.294 11.425 31.465-14.61 49.82-.375"/></g></g></svg></svg>